<svg width="108" height="108" viewBox="0 0 108 108" fill="none" xmlns="http://www.w3.org/2000/svg">
<mask id="mask0_79_1712" style="mask-type:luminance" maskUnits="userSpaceOnUse" x="0" y="0" width="108" height="108">
<path d="M5.52004 46.3198H0.420044V51.4198H5.52004V46.3198Z" fill="white"/>
<path d="M5.52004 61.6199H0.420044V66.7199H5.52004V61.6199Z" fill="white"/>
<path d="M10.62 46.3198H5.52002V51.4198H10.62V46.3198Z" fill="white"/>
<path d="M10.62 56.52H5.52002V61.62H10.62V56.52Z" fill="white"/>
<path d="M15.72 51.4199H10.62V56.5199H15.72V51.4199Z" fill="white"/>
<path d="M15.72 56.52H10.62V61.62H15.72V56.52Z" fill="white"/>
<path d="M15.72 61.6199H10.62V66.7199H15.72V61.6199Z" fill="white"/>
<path d="M20.8201 41.22H15.7201V46.32H20.8201V41.22Z" fill="white"/>
<path d="M20.8201 46.3198H15.7201V51.4198H20.8201V46.3198Z" fill="white"/>
<path d="M20.8201 56.52H15.7201V61.62H20.8201V56.52Z" fill="white"/>
<path d="M25.9201 51.4199H20.8201V56.5199H25.9201V51.4199Z" fill="white"/>
<path d="M25.9201 56.52H20.8201V61.62H25.9201V56.52Z" fill="white"/>
<path d="M25.9201 61.6199H20.8201V66.7199H25.9201V61.6199Z" fill="white"/>
<path d="M31.02 41.22H25.92V46.32H31.02V41.22Z" fill="white"/>
<path d="M31.02 46.3198H25.92V51.4198H31.02V46.3198Z" fill="white"/>
<path d="M31.02 51.4199H25.92V56.5199H31.02V51.4199Z" fill="white"/>
<path d="M36.12 41.22H31.02V46.32H36.12V41.22Z" fill="white"/>
<path d="M36.12 51.4199H31.02V56.5199H36.12V51.4199Z" fill="white"/>
<path d="M36.12 61.6199H31.02V66.7199H36.12V61.6199Z" fill="white"/>
<path d="M41.22 41.22H36.12V46.32H41.22V41.22Z" fill="white"/>
<path d="M41.22 46.3198H36.12V51.4198H41.22V46.3198Z" fill="white"/>
<path d="M41.22 51.4199H36.12V56.5199H41.22V51.4199Z" fill="white"/>
<path d="M41.22 56.52H36.12V61.62H41.22V56.52Z" fill="white"/>
<path d="M41.22 61.6199H36.12V66.7199H41.22V61.6199Z" fill="white"/>
<path d="M46.3201 5.52002H41.2201V10.62H46.3201V5.52002Z" fill="white"/>
<path d="M46.3201 10.6199H41.2201V15.7199H46.3201V10.6199Z" fill="white"/>
<path d="M46.3201 31.02H41.2201V36.12H46.3201V31.02Z" fill="white"/>
<path d="M46.3201 46.3198H41.2201V51.4198H46.3201V46.3198Z" fill="white"/>
<path d="M46.3201 51.4199H41.2201V56.5199H46.3201V51.4199Z" fill="white"/>
<path d="M46.3201 56.52H41.2201V61.62H46.3201V56.52Z" fill="white"/>
<path d="M46.3201 61.6199H41.2201V66.7199H46.3201V61.6199Z" fill="white"/>
<path d="M46.3201 71.8198H41.2201V76.9198H46.3201V71.8198Z" fill="white"/>
<path d="M46.3201 76.9199H41.2201V82.0199H46.3201V76.9199Z" fill="white"/>
<path d="M46.3201 87.1199H41.2201V92.2199H46.3201V87.1199Z" fill="white"/>
<path d="M51.4201 0.419922H46.3201V5.51992H51.4201V0.419922Z" fill="white"/>
<path d="M51.4201 10.6199H46.3201V15.7199H51.4201V10.6199Z" fill="white"/>
<path d="M51.4201 20.8198H46.3201V25.9198H51.4201V20.8198Z" fill="white"/>
<path d="M51.4201 25.9199H46.3201V31.0199H51.4201V25.9199Z" fill="white"/>
<path d="M51.4201 36.1199H46.3201V41.2199H51.4201V36.1199Z" fill="white"/>
<path d="M51.4201 41.22H46.3201V46.32H51.4201V41.22Z" fill="white"/>
<path d="M51.4201 51.4199H46.3201V56.5199H51.4201V51.4199Z" fill="white"/>
<path d="M51.4201 56.52H46.3201V61.62H51.4201V56.52Z" fill="white"/>
<path d="M51.4201 61.6199H46.3201V66.7199H51.4201V61.6199Z" fill="white"/>
<path d="M51.4201 66.72H46.3201V71.82H51.4201V66.72Z" fill="white"/>
<path d="M51.4201 71.8198H46.3201V76.9198H51.4201V71.8198Z" fill="white"/>
<path d="M51.4201 76.9199H46.3201V82.0199H51.4201V76.9199Z" fill="white"/>
<path d="M51.4201 82.02H46.3201V87.12H51.4201V82.02Z" fill="white"/>
<path d="M51.4201 92.22H46.3201V97.32H51.4201V92.22Z" fill="white"/>
<path d="M51.4201 97.3198H46.3201V102.42H51.4201V97.3198Z" fill="white"/>
<path d="M56.52 5.52002H51.42V10.62H56.52V5.52002Z" fill="white"/>
<path d="M56.52 10.6199H51.42V15.7199H56.52V10.6199Z" fill="white"/>
<path d="M56.52 31.02H51.42V36.12H56.52V31.02Z" fill="white"/>
<path d="M56.52 36.1199H51.42V41.2199H56.52V36.1199Z" fill="white"/>
<path d="M56.52 46.3198H51.42V51.4198H56.52V46.3198Z" fill="white"/>
<path d="M56.52 61.6199H51.42V66.7199H56.52V61.6199Z" fill="white"/>
<path d="M56.52 71.8198H51.42V76.9198H56.52V71.8198Z" fill="white"/>
<path d="M56.52 82.02H51.42V87.12H56.52V82.02Z" fill="white"/>
<path d="M56.52 87.1199H51.42V92.2199H56.52V87.1199Z" fill="white"/>
<path d="M56.52 102.42H51.42V107.52H56.52V102.42Z" fill="white"/>
<path d="M61.62 5.52002H56.52V10.62H61.62V5.52002Z" fill="white"/>
<path d="M61.62 10.6199H56.52V15.7199H61.62V10.6199Z" fill="white"/>
<path d="M61.62 20.8198H56.52V25.9198H61.62V20.8198Z" fill="white"/>
<path d="M61.62 25.9199H56.52V31.0199H61.62V25.9199Z" fill="white"/>
<path d="M61.62 36.1199H56.52V41.2199H61.62V36.1199Z" fill="white"/>
<path d="M61.62 41.22H56.52V46.32H61.62V41.22Z" fill="white"/>
<path d="M61.62 46.3198H56.52V51.4198H61.62V46.3198Z" fill="white"/>
<path d="M61.62 82.02H56.52V87.12H61.62V82.02Z" fill="white"/>
<path d="M61.62 102.42H56.52V107.52H61.62V102.42Z" fill="white"/>
<path d="M66.72 15.72H61.62V20.82H66.72V15.72Z" fill="white"/>
<path d="M66.72 31.02H61.62V36.12H66.72V31.02Z" fill="white"/>
<path d="M66.72 46.3198H61.62V51.4198H66.72V46.3198Z" fill="white"/>
<path d="M66.72 66.72H61.62V71.82H66.72V66.72Z" fill="white"/>
<path d="M66.72 71.8198H61.62V76.9198H66.72V71.8198Z" fill="white"/>
<path d="M66.72 92.22H61.62V97.32H66.72V92.22Z" fill="white"/>
<path d="M66.72 102.42H61.62V107.52H66.72V102.42Z" fill="white"/>
<path d="M71.8201 41.22H66.7201V46.32H71.8201V41.22Z" fill="white"/>
<path d="M71.8201 46.3198H66.7201V51.4198H71.8201V46.3198Z" fill="white"/>
<path d="M71.8201 51.4199H66.7201V56.5199H71.8201V51.4199Z" fill="white"/>
<path d="M71.8201 76.9199H66.7201V82.0199H71.8201V76.9199Z" fill="white"/>
<path d="M71.8201 87.1199H66.7201V92.2199H71.8201V87.1199Z" fill="white"/>
<path d="M71.8201 97.3198H66.7201V102.42H71.8201V97.3198Z" fill="white"/>
<path d="M71.8201 102.42H66.7201V107.52H71.8201V102.42Z" fill="white"/>
<path d="M76.9201 46.3198H71.8201V51.4198H76.9201V46.3198Z" fill="white"/>
<path d="M76.9201 66.72H71.8201V71.82H76.9201V66.72Z" fill="white"/>
<path d="M76.9201 71.8198H71.8201V76.9198H76.9201V71.8198Z" fill="white"/>
<path d="M76.9201 82.02H71.8201V87.12H76.9201V82.02Z" fill="white"/>
<path d="M76.9201 92.22H71.8201V97.32H76.9201V92.22Z" fill="white"/>
<path d="M76.9201 97.3198H71.8201V102.42H76.9201V97.3198Z" fill="white"/>
<path d="M76.9201 102.42H71.8201V107.52H76.9201V102.42Z" fill="white"/>
<path d="M82.02 46.3198H76.92V51.4198H82.02V46.3198Z" fill="white"/>
<path d="M82.02 51.4199H76.92V56.5199H82.02V51.4199Z" fill="white"/>
<path d="M82.02 82.02H76.92V87.12H82.02V82.02Z" fill="white"/>
<path d="M82.02 87.1199H76.92V92.2199H82.02V87.1199Z" fill="white"/>
<path d="M82.02 102.42H76.92V107.52H82.02V102.42Z" fill="white"/>
<path d="M87.12 61.6199H82.02V66.7199H87.12V61.6199Z" fill="white"/>
<path d="M87.12 66.72H82.02V71.82H87.12V66.72Z" fill="white"/>
<path d="M87.12 71.8198H82.02V76.9198H87.12V71.8198Z" fill="white"/>
<path d="M87.12 87.1199H82.02V92.2199H87.12V87.1199Z" fill="white"/>
<path d="M87.12 92.22H82.02V97.32H87.12V92.22Z" fill="white"/>
<path d="M87.12 102.42H82.02V107.52H87.12V102.42Z" fill="white"/>
<path d="M92.22 46.3198H87.12V51.4198H92.22V46.3198Z" fill="white"/>
<path d="M92.22 56.52H87.12V61.62H92.22V56.52Z" fill="white"/>
<path d="M92.22 66.72H87.12V71.82H92.22V66.72Z" fill="white"/>
<path d="M92.22 71.8198H87.12V76.9198H92.22V71.8198Z" fill="white"/>
<path d="M92.22 76.9199H87.12V82.0199H92.22V76.9199Z" fill="white"/>
<path d="M92.22 82.02H87.12V87.12H92.22V82.02Z" fill="white"/>
<path d="M92.22 87.1199H87.12V92.2199H92.22V87.1199Z" fill="white"/>
<path d="M97.3201 41.22H92.2201V46.32H97.3201V41.22Z" fill="white"/>
<path d="M97.3201 56.52H92.2201V61.62H97.3201V56.52Z" fill="white"/>
<path d="M97.3201 61.6199H92.2201V66.7199H97.3201V61.6199Z" fill="white"/>
<path d="M97.3201 66.72H92.2201V71.82H97.3201V66.72Z" fill="white"/>
<path d="M97.3201 76.9199H92.2201V82.0199H97.3201V76.9199Z" fill="white"/>
<path d="M97.3201 82.02H92.2201V87.12H97.3201V82.02Z" fill="white"/>
<path d="M97.3201 87.1199H92.2201V92.2199H97.3201V87.1199Z" fill="white"/>
<path d="M97.3201 92.22H92.2201V97.32H97.3201V92.22Z" fill="white"/>
<path d="M97.3201 97.3198H92.2201V102.42H97.3201V97.3198Z" fill="white"/>
<path d="M97.3201 102.42H92.2201V107.52H97.3201V102.42Z" fill="white"/>
<path d="M102.42 41.22H97.3201V46.32H102.42V41.22Z" fill="white"/>
<path d="M102.42 46.3198H97.3201V51.4198H102.42V46.3198Z" fill="white"/>
<path d="M102.42 56.52H97.3201V61.62H102.42V56.52Z" fill="white"/>
<path d="M102.42 66.72H97.3201V71.82H102.42V66.72Z" fill="white"/>
<path d="M102.42 71.8198H97.3201V76.9198H102.42V71.8198Z" fill="white"/>
<path d="M102.42 76.9199H97.3201V82.0199H102.42V76.9199Z" fill="white"/>
<path d="M102.42 102.42H97.3201V107.52H102.42V102.42Z" fill="white"/>
<path d="M107.52 51.4199H102.42V56.5199H107.52V51.4199Z" fill="white"/>
<path d="M107.52 56.52H102.42V61.62H107.52V56.52Z" fill="white"/>
<path d="M107.52 61.6199H102.42V66.7199H107.52V61.6199Z" fill="white"/>
<path d="M107.52 66.72H102.42V71.82H107.52V66.72Z" fill="white"/>
<path d="M107.52 71.8198H102.42V76.9198H107.52V71.8198Z" fill="white"/>
<path d="M107.52 76.9199H102.42V82.0199H107.52V76.9199Z" fill="white"/>
<path d="M107.52 87.1199H102.42V92.2199H107.52V87.1199Z" fill="white"/>
<path d="M107.52 97.3198H102.42V102.42H107.52V97.3198Z" fill="white"/>
<path d="M107.52 102.42H102.42V107.52H107.52V102.42Z" fill="white"/>
</mask>
<g mask="url(#mask0_79_1712)">
<path d="M107.52 0.419922H0.420044V107.52H107.52V0.419922Z" fill="#F9F9FF"/>
</g>
</svg>
